<?xml version="1.0" standalone="no"?>
<!DOCTYPE svg PUBLIC "-//W3C//DTD SVG 20010904//EN"
 "http://www.w3.org/TR/2001/REC-SVG-20010904/DTD/svg10.dtd">
<svg version="1.0" xmlns="http://www.w3.org/2000/svg"
 width="500.000000pt" height="500.000000pt" viewBox="0 0 500.000000 500.000000"
 preserveAspectRatio="xMidYMid meet">

<g transform="translate(0.000000,500.000000) scale(0.100000,-0.100000)"
fill="#000000" stroke="none">
<path d="M2500 3140 l0 -250 -825 0 -825 0 0 -390 0 -390 825 0 825 0 0 -245
c0 -135 2 -245 5 -245 2 0 50 20 106 45 133 59 225 121 332 224 124 119 201
241 262 414 15 43 33 77 41 77 8 0 14 15 16 38 3 36 4 37 46 40 39 3 42 5 42
33 0 27 -2 29 -40 29 -36 0 -40 3 -40 25 0 23 4 25 45 25 45 0 45 0 45 34 0
33 -2 35 -40 38 l-40 3 -5 190 c-3 105 -13 241 -22 304 l-18 114 -40 14 c-95
33 -216 65 -319 83 -101 18 -298 40 -353 40 l-23 0 0 -250z m-568 -526 c21
-19 29 -52 16 -61 -6 -3 -20 6 -30 20 -15 21 -28 27 -58 27 -44 0 -70 -23 -53
-48 5 -10 34 -25 63 -34 29 -10 61 -25 71 -34 25 -22 24 -69 -1 -94 -44 -44
-170 -13 -170 41 0 25 27 25 35 -1 11 -35 98 -41 119 -8 15 24 -15 53 -70 67
-69 18 -97 56 -78 106 16 42 116 54 156 19z m-707 -9 c17 -16 25 -35 25 -60 0
-55 -35 -85 -100 -85 l-50 0 0 -45 c0 -33 -4 -45 -15 -45 -13 0 -15 21 -15
130 l0 130 65 0 c57 0 69 -3 90 -25z m145 -30 l0 -55 70 0 70 0 0 55 c0 42 3
55 15 55 13 0 15 -21 15 -130 0 -107 -3 -130 -15 -130 -10 0 -15 15 -17 58
l-3 57 -67 3 -68 3 0 -61 c0 -53 -2 -60 -20 -60 -19 0 -20 7 -20 130 0 123 1
130 20 130 18 0 20 -7 20 -55z m310 -75 c0 -123 -1 -130 -20 -130 -19 0 -20 7
-20 130 0 123 1 130 20 130 19 0 20 -7 20 -130z m400 75 l0 -55 70 0 70 0 0
55 c0 48 2 55 20 55 19 0 20 -7 20 -130 0 -123 -1 -130 -20 -130 -18 0 -20 7
-20 60 l0 60 -70 0 -70 0 0 -60 c0 -47 -3 -60 -15 -60 -13 0 -15 21 -15 130 0
109 2 130 15 130 12 0 15 -13 15 -55z m440 40 c0 -12 -14 -15 -65 -15 l-65 0
0 -40 0 -40 60 0 c47 0 60 -3 60 -15 0 -12 -13 -15 -60 -15 l-60 0 0 -45 0
-45 65 0 c51 0 65 -3 65 -15 0 -12 -16 -15 -80 -15 l-80 0 0 130 0 130 80 0
c64 0 80 -3 80 -15z m257 -7 c11 -13 23 -31 26 -41 9 -23 -9 -68 -35 -88 l-21
-16 32 -47 c29 -42 30 -46 12 -46 -12 0 -32 17 -51 45 -25 36 -37 45 -60 45
-29 0 -30 -2 -30 -45 0 -33 -4 -45 -15 -45 -13 0 -15 21 -15 130 l0 130 68 0
c58 0 72 -3 89 -22z"/>
<path d="M1100 2544 l0 -55 47 3 c39 2 50 8 62 29 13 24 13 29 -2 53 -15 22
-25 26 -62 26 l-45 0 0 -56z"/>
<path d="M2650 2550 l0 -50 48 0 c53 0 72 12 72 46 0 35 -26 54 -76 54 l-44 0
0 -50z"/>
<path d="M760 2500 l0 -480 520 0 c458 0 519 2 514 15 -5 13 -71 15 -510 15
l-504 0 0 450 0 450 420 0 c367 0 420 2 420 15 0 13 -54 15 -430 15 l-430 0 0
-480z"/>
<path d="M3380 2965 c0 -13 53 -15 420 -15 l420 0 0 -450 0 -450 -504 0 c-439
0 -505 -2 -510 -15 -5 -13 57 -15 519 -15 l525 0 0 480 0 480 -435 0 c-380 0
-435 -2 -435 -15z"/>
<path d="M3400 2510 l0 -130 40 0 40 0 0 130 0 130 -40 0 -40 0 0 -130z"/>
<path d="M3530 2510 l0 -130 40 0 39 0 3 62 3 63 45 -62 c39 -54 49 -62 78
-63 l32 0 0 130 0 130 -40 0 -39 0 -3 -61 -3 -61 -44 61 c-39 54 -48 61 -78
61 l-33 0 0 -130z"/>
<path d="M3830 2510 l0 -130 71 0 c110 0 159 32 174 112 9 47 -16 103 -57 128
-26 15 -50 20 -110 20 l-78 0 0 -130z m152 43 c40 -36 9 -103 -48 -103 l-34 0
0 60 0 60 32 0 c17 0 40 -7 50 -17z"/>
</g>
</svg>
